<svg width="21" height="18" viewBox="0 0 21 18" fill="none" xmlns="http://www.w3.org/2000/svg">
<path fill-rule="evenodd" clip-rule="evenodd" d="M0.186984 6.51651C0.38314 6.19303 0.705627 6.00003 1.05001 6.00003H19.95C20.2944 6.00003 20.6169 6.19303 20.813 6.51651C21.0092 6.84 21.0541 7.25286 20.9331 7.62137L17.7831 17.2214C17.6295 17.6897 17.2377 18 16.8 18H4.2C3.76232 18 3.37054 17.6897 3.21686 17.2214L0.0668603 7.62137C-0.0540589 7.25286 -0.00917204 6.84 0.186984 6.51651ZM2.56516 8.40002L4.92765 15.6H16.0723L18.4348 8.40002H2.56516Z" fill="#AFAFAF"/>
<path fill-rule="evenodd" clip-rule="evenodd" d="M9.05593 0.263001C9.50876 0.677011 9.58217 1.43216 9.21991 1.94967L5.01992 7.94966C4.65766 8.46717 3.9969 8.55108 3.54407 8.13707C3.09125 7.72306 3.01783 6.96791 3.38009 6.45039L7.58009 0.450409C7.94235 -0.067104 8.60311 -0.151009 9.05593 0.263001Z" fill="#AFAFAF"/>
<path fill-rule="evenodd" clip-rule="evenodd" d="M11.9441 0.263001C11.4912 0.677011 11.4178 1.43216 11.7801 1.94967L15.9801 7.94966C16.3423 8.46717 17.0031 8.55108 17.4559 8.13707C17.9087 7.72306 17.9822 6.96791 17.6199 6.45039L13.4199 0.450409C13.0576 -0.067104 12.3969 -0.151009 11.9441 0.263001Z" fill="#AFAFAF"/>
</svg>
