<svg width="20" height="19" viewBox="0 0 20 19" fill="none" xmlns="http://www.w3.org/2000/svg">
<path fill-rule="evenodd" clip-rule="evenodd" d="M9.38611 0.210648C9.74722 -0.0702159 10.2529 -0.0702159 10.614 0.210648L19.614 7.21065C20.0499 7.54972 20.1285 8.17799 19.7894 8.61394C19.4503 9.04989 18.8221 9.12842 18.3861 8.78935L18 8.48908L16.0021 6.93514L10 2.26686L4.00005 6.93353L2.00005 8.48908L1.61399 8.78935C1.17804 9.12842 0.549764 9.04989 0.210694 8.61394C-0.128376 8.17799 -0.0498418 7.54972 0.386105 7.21065L9.38611 0.210648Z" fill="#E6A000"/>
<path d="M18 8.48908L16.0021 6.93514C16.0007 6.95658 16 6.97821 16 7V17H12H8.00005H4.00005V6.93353L2.00005 8.48908V18C2.00005 18.5523 2.44776 19 3.00005 19H17C17.5523 19 18 18.5523 18 18V8.48908Z" fill="#E6A000"/>
</svg>
